<?xml version="1.0" encoding="utf-8"?>
<!-- Generator: Adobe Illustrator 16.0.0, SVG Export Plug-In . SVG Version: 6.00 Build 0)  -->
<!DOCTYPE svg PUBLIC "-//W3C//DTD SVG 1.1//EN" "http://www.w3.org/Graphics/SVG/1.1/DTD/svg11.dtd">
<svg version="1.1" id="Layer_1" xmlns="http://www.w3.org/2000/svg" xmlns:xlink="http://www.w3.org/1999/xlink" x="0px" y="0px"
	 width="595.28px" height="309.998px" viewBox="0 0 595.28 309.998" enable-background="new 0 0 595.28 309.998"
	 xml:space="preserve">
<g>
	<path fill-rule="evenodd" clip-rule="evenodd" fill="#011B72" d="M206.627,154.959c0,15.819-0.027,31.635,0.039,47.452
		c0.006,1.818-0.599,2.766-2.189,3.678c-27.453,15.77-54.867,31.607-82.265,47.467c-1.381,0.8-2.467,0.871-3.885,0.046
		c-27.408-15.86-54.832-31.694-82.289-47.466c-1.665-0.956-2.249-2.014-2.244-3.904c0.051-31.634,0.045-63.268,0-94.902
		c-0.002-1.642,0.58-2.497,1.998-3.312c27.511-15.815,54.996-31.679,82.46-47.579c1.393-0.806,2.436-0.861,3.865-0.031
		c23.379,13.555,46.791,27.053,70.199,40.56c4.012,2.316,7.982,4.715,12.076,6.882c1.717,0.91,2.268,2.004,2.26,3.896
		c-0.068,15.737-0.039,31.477-0.039,47.214C206.618,154.959,206.623,154.959,206.627,154.959z M192.021,155.086
		c-0.003,0-0.008,0-0.014,0c0-12.981-0.031-25.965,0.038-38.947c0.01-1.802-0.566-2.826-2.145-3.73
		c-22.49-12.9-44.955-25.852-67.39-38.848c-1.645-0.954-2.896-0.955-4.543-0.001c-22.441,12.987-44.908,25.927-67.406,38.813
		c-1.682,0.962-2.182,2.102-2.178,3.958c0.052,25.728,0.063,51.458-0.01,77.185c-0.008,2.102,0.663,3.283,2.461,4.295
		c7.873,4.425,15.682,8.967,23.508,13.475c14.499,8.352,29.006,16.69,43.475,25.094c1.689,0.98,3.051,1.156,4.76,0.011
		c2.344-1.57,4.881-2.847,7.33-4.257c19.602-11.293,39.176-22.633,58.828-33.83c2.41-1.373,3.395-2.848,3.36-5.686
		C191.93,180.11,192.021,167.599,192.021,155.086z"/>
	<path fill-rule="evenodd" clip-rule="evenodd" fill="#011B72" d="M124.993,86.311c0,0,38.148,21.88,55.18,31.65
		c1.453,0.835,2.188,1.741,2.109,3.501c-0.137,3.061-0.094,6.135-0.01,9.2c0.045,1.651-0.62,2.234-2.229,2.199
		c-3.379-0.076-6.766-0.104-10.145-0.017c-1.734,0.045-2.58-0.567-2.278-2.314c0.393-2.253-0.744-3.364-2.597-4.405
		c-7.531-4.223-24.221-13.806-25.48-14.438c0,28.966,0,57.509,0,86.43c0.904-0.375,18.301-10.188,26.291-14.729
		c1.342-0.76,1.834-1.689,1.811-3.214c-0.078-5.112-0.1-10.227,0.006-15.337c0.041-1.973-0.656-2.611-2.596-2.557
		c-3.931,0.105-7.867-0.039-11.8,0.023c-1.705,0.029-2.414-0.564-2.367-2.326c0.088-3.301,0.072-6.609,0.002-9.912
		c-0.037-1.667,0.5-2.412,2.295-2.4c8.966,0.057,17.936,0.045,26.902-0.004c1.66-0.008,2.184,0.686,2.18,2.267
		c-0.039,13.059-0.004,26.118-0.092,39.172c-0.004,0.838-0.605,2.047-1.301,2.449c-18.267,10.613-55.345,31.807-55.88,31.945
		C124.993,177.88,124.993,86.311,124.993,86.311z"/>
	<path fill-rule="evenodd" clip-rule="evenodd" fill="#011B72" d="M115.518,86.157c0,0,0.176,25.077,0.25,36.403
		c0.011,1.784-0.565,2.348-2.293,2.296c-3.301-0.098-6.609-0.105-9.91,0.004c-1.814,0.059-2.549-0.477-2.449-2.404
		c0.148-2.825,0.039-5.663,0.015-8.495c-0.004-0.596-0.104-1.192-0.195-2.166c-0.873,0.37-1.508,0.567-2.07,0.891
		c-8.033,4.61-16.047,9.255-24.096,13.841c-1.365,0.778-2.031,1.664-1.992,3.346c0.122,4.953,0.139,9.914,0,14.865
		c-0.064,2.244,0.639,3.002,2.93,2.984c12.191-0.092,24.385-0.045,36.576-0.039c3.44,0.002,3.434,0.014,3.426,3.367
		c-0.008,2.91-0.089,5.826,0.025,8.731c0.08,1.988-0.73,2.559-2.639,2.546c-12.349-0.062-24.701-0.032-37.051-0.03
		c-3.221,0.002-3.23,0.008-3.234,3.295c-0.003,10.227,0.004,32.213,0.004,33.602c-1.967-1.127-3.48-1.994-4.996-2.861
		c-2.523-1.443-5.004-2.969-7.584-4.301c-1.521-0.789-2.072-1.786-2.068-3.525c0.059-22.42,0.062-44.839-0.018-67.257
		c-0.006-1.755,0.775-2.513,2.072-3.26C74.933,109.538,115.518,86.157,115.518,86.157z"/>
</g>
<g>
	<path fill="#011B72" d="M238.574,112.076h31.303v9.502h-20.458v6.596h18.502v9.055h-18.502v13.975h-10.844V112.076z"/>
	<path fill="#011B72" d="M275.019,112.076h10.9v39.128h-10.9V112.076z"/>
	<path fill="#011B72" d="M293.074,112.076h18.502c3.019,0,5.57,0.373,7.658,1.118c2.087,0.746,3.782,1.789,5.087,3.13
		c2.31,2.236,3.466,5.273,3.466,9.111v0.112c0,3.019-0.727,5.516-2.181,7.49c-1.453,1.976-3.409,3.485-5.869,4.528l9.335,13.639
		h-12.521l-7.881-11.851h-0.112h-4.64v11.851h-10.844V112.076z M311.073,130.857c1.863,0,3.298-0.419,4.304-1.258
		c1.007-0.838,1.51-1.965,1.51-3.382v-0.112c0-1.565-0.522-2.729-1.565-3.494c-1.044-0.763-2.479-1.146-4.304-1.146h-7.1v9.391
		H311.073z"/>
	<path fill="#011B72" d="M333.265,112.076h11.459l9.335,15.148l9.335-15.148h11.459v39.128h-10.788v-22.471l-9.978,15.316h-0.224
		l-9.922-15.205v22.359h-10.677V112.076z"/>
	<path fill="#011B72" d="M417.222,151.987c-3.056,0-5.879-0.495-8.468-1.481c-2.591-0.987-4.836-2.375-6.736-4.165
		c-1.9-1.789-3.392-3.921-4.472-6.4c-1.081-2.478-1.621-5.207-1.621-8.189v-0.112c0-2.832,0.528-5.487,1.585-7.965
		c1.058-2.478,2.513-4.64,4.366-6.484c1.854-1.844,4.074-3.288,6.66-4.332c2.585-1.043,5.388-1.565,8.406-1.565
		c3.466,0,6.456,0.503,8.972,1.509c2.516,1.006,4.816,2.403,6.903,4.192l-6.372,7.658c-1.417-1.192-2.86-2.105-4.332-2.739
		c-1.473-0.633-3.178-0.95-5.115-0.95c-1.416,0-2.729,0.279-3.94,0.838s-2.264,1.323-3.158,2.292
		c-0.895,0.969-1.603,2.105-2.124,3.41c-0.522,1.305-0.782,2.702-0.782,4.192v0.112c0,1.565,0.261,3.019,0.785,4.36
		c0.522,1.342,1.261,2.487,2.215,3.438c0.953,0.95,2.075,1.696,3.365,2.236c1.289,0.541,2.72,0.811,4.29,0.811
		c2.542,0,4.636-0.54,6.281-1.621v-4.751h-7.714v-7.938h17.999v17.608c-2.087,1.714-4.547,3.149-7.378,4.304
		C424.004,151.409,420.8,151.987,417.222,151.987z"/>
	<path fill="#011B72" d="M440.252,112.076h18.502c3.019,0,5.57,0.373,7.658,1.118c2.087,0.746,3.782,1.789,5.087,3.13
		c2.31,2.236,3.466,5.273,3.466,9.111v0.112c0,3.019-0.727,5.516-2.181,7.49c-1.453,1.976-3.409,3.485-5.869,4.528l9.335,13.639
		h-12.521l-7.881-11.851h-0.112h-4.64v11.851h-10.844V112.076z M458.251,130.857c1.863,0,3.298-0.419,4.304-1.258
		c1.007-0.838,1.51-1.965,1.51-3.382v-0.112c0-1.565-0.522-2.729-1.565-3.494c-1.044-0.763-2.479-1.146-4.304-1.146h-7.1v9.391
		H458.251z"/>
	<path fill="#011B72" d="M480.666,112.076h10.9v39.128h-10.9V112.076z"/>
	<path fill="#011B72" d="M498.721,112.076h16.77c2.459,0,4.695,0.307,6.707,0.922c2.013,0.615,3.727,1.509,5.144,2.683
		c1.415,1.174,2.505,2.619,3.27,4.333c0.764,1.714,1.146,3.652,1.146,5.813v0.112c0,2.311-0.419,4.342-1.257,6.093
		c-0.839,1.752-2.004,3.224-3.494,4.416c-1.491,1.193-3.27,2.088-5.338,2.683c-2.068,0.597-4.314,0.895-6.736,0.895h-5.366v11.18
		h-10.844V112.076z M514.707,131.528c1.938,0,3.456-0.458,4.556-1.376s1.649-2.163,1.649-3.737v-0.113
		c0-1.686-0.55-2.969-1.649-3.85s-2.637-1.321-4.611-1.321h-5.087v10.397H514.707z"/>
</g>
<g>
	<path fill="#4EA5DF" d="M244.505,178.471c-1.748,0-3.407-0.271-4.978-0.813c-1.571-0.543-2.961-1.356-4.169-2.441l3.012-3.605
		c1.952,1.562,4.062,2.343,6.33,2.343c0.725,0,1.278-0.116,1.659-0.348c0.381-0.232,0.572-0.562,0.572-0.989v-0.055
		c0-0.204-0.047-0.386-0.14-0.543c-0.093-0.158-0.265-0.311-0.516-0.459s-0.585-0.292-1.004-0.432
		c-0.418-0.14-0.962-0.283-1.631-0.432c-1.042-0.241-2.008-0.506-2.9-0.793c-0.892-0.288-1.668-0.659-2.328-1.114
		c-0.66-0.454-1.181-1.021-1.562-1.698c-0.381-0.677-0.571-1.517-0.571-2.519v-0.056c0-0.909,0.171-1.744,0.516-2.505
		c0.344-0.761,0.846-1.42,1.506-1.977c0.66-0.557,1.455-0.988,2.384-1.295c0.929-0.306,1.98-0.459,3.151-0.459
		c1.673,0,3.165,0.22,4.476,0.659c1.311,0.44,2.496,1.09,3.556,1.95l-2.705,3.832c-0.892-0.632-1.808-1.11-2.747-1.436
		c-0.939-0.325-1.845-0.488-2.719-0.488c-0.651,0-1.139,0.12-1.464,0.362c-0.326,0.241-0.488,0.538-0.488,0.891v0.056
		c0,0.223,0.051,0.417,0.153,0.584s0.279,0.32,0.53,0.46c0.251,0.139,0.595,0.278,1.032,0.417c0.437,0.14,0.99,0.283,1.659,0.432
		c1.116,0.241,2.124,0.524,3.026,0.849c0.901,0.325,1.668,0.72,2.3,1.184s1.116,1.025,1.45,1.684
		c0.334,0.659,0.502,1.443,0.502,2.353v0.056c0,1.002-0.191,1.893-0.572,2.672c-0.381,0.779-0.916,1.443-1.604,1.99
		c-0.688,0.548-1.515,0.965-2.481,1.253C246.773,178.326,245.695,178.471,244.505,178.471z"/>
	<path fill="#4EA5DF" d="M255.018,158.616h15.671v4.601h-10.345v2.956h9.37v4.267h-9.37v3.095h10.485v4.602h-15.811V158.616z"/>
	<path fill="#4EA5DF" d="M283.015,178.526c-1.395,0-2.705-0.251-3.932-0.753s-2.292-1.204-3.193-2.105
		c-0.902-0.901-1.617-1.971-2.147-3.207s-0.795-2.579-0.795-4.029v-0.056c0-1.413,0.26-2.737,0.781-3.974s1.236-2.314,2.147-3.235
		c0.911-0.92,1.994-1.64,3.249-2.161c1.255-0.52,2.625-0.78,4.113-0.78c1.004,0,1.914,0.098,2.732,0.293s1.566,0.474,2.245,0.836
		c0.679,0.363,1.292,0.795,1.84,1.297c0.549,0.502,1.036,1.051,1.465,1.646l-4.071,3.151c-0.558-0.707-1.172-1.265-1.841-1.674
		c-0.669-0.408-1.478-0.613-2.426-0.613c-0.688,0-1.315,0.135-1.882,0.404c-0.567,0.27-1.056,0.637-1.464,1.102
		c-0.409,0.465-0.729,1.014-0.962,1.646c-0.233,0.632-0.349,1.301-0.349,2.008v0.056c0,0.725,0.116,1.408,0.349,2.05
		c0.232,0.641,0.553,1.194,0.962,1.659c0.409,0.465,0.897,0.832,1.464,1.102c0.566,0.27,1.194,0.404,1.882,0.404
		c0.502,0,0.962-0.057,1.38-0.168c0.419-0.111,0.799-0.273,1.144-0.487c0.344-0.214,0.669-0.465,0.976-0.753
		s0.609-0.609,0.906-0.963l4.071,2.9c-0.465,0.632-0.972,1.218-1.52,1.757c-0.549,0.539-1.171,1.004-1.868,1.395
		s-1.478,0.697-2.343,0.92C285.064,178.415,284.093,178.526,283.015,178.526z"/>
	<path fill="#4EA5DF" d="M302.758,178.498c-1.395,0-2.649-0.177-3.765-0.529c-1.115-0.354-2.063-0.897-2.844-1.632
		c-0.781-0.734-1.381-1.663-1.799-2.788s-0.628-2.449-0.628-3.974v-10.959h5.521v10.847c0,1.413,0.322,2.459,0.969,3.138
		c0.646,0.679,1.513,1.018,2.601,1.018c1.089,0,1.955-0.325,2.601-0.976c0.646-0.65,0.969-1.664,0.969-3.04v-10.986h5.521v10.819
		c0,1.58-0.219,2.941-0.655,4.085s-1.051,2.082-1.84,2.816c-0.791,0.734-1.748,1.278-2.873,1.632
		C305.411,178.321,304.152,178.498,302.758,178.498z"/>
	<path fill="#4EA5DF" d="M315.11,158.616h9.23c1.506,0,2.779,0.186,3.82,0.558s1.887,0.892,2.538,1.562
		c1.152,1.115,1.729,2.631,1.729,4.545v0.056c0,1.506-0.362,2.752-1.088,3.737c-0.725,0.985-1.701,1.738-2.928,2.259l4.657,6.804
		h-6.247l-3.932-5.912h-0.056h-2.314v5.912h-5.41V158.616z M324.09,167.985c0.93,0,1.646-0.209,2.147-0.627
		c0.502-0.419,0.753-0.98,0.753-1.688v-0.056c0-0.781-0.261-1.361-0.781-1.743c-0.521-0.381-1.236-0.571-2.146-0.571h-3.542v4.685
		H324.09z"/>
	<path fill="#4EA5DF" d="M335.272,158.616h5.438v19.52h-5.438V158.616z"/>
	<path fill="#4EA5DF" d="M349.047,163.356h-5.855v-4.74h17.121v4.74h-5.855v14.779h-5.41V163.356z"/>
	<path fill="#4EA5DF" d="M368.315,170.83l-7.417-12.214h6.163l4.015,7.11l4.044-7.11h6.051l-7.417,12.13v7.39h-5.438V170.83z"/>
	<path fill="#4EA5DF" d="M399.966,178.526c-1.394,0-2.704-0.251-3.932-0.753c-1.227-0.502-2.291-1.204-3.192-2.105
		c-0.902-0.901-1.618-1.971-2.147-3.207c-0.53-1.236-0.795-2.579-0.795-4.029v-0.056c0-1.413,0.26-2.737,0.781-3.974
		c0.52-1.236,1.235-2.314,2.146-3.235c0.911-0.92,1.994-1.64,3.249-2.161c1.255-0.52,2.626-0.78,4.113-0.78
		c1.004,0,1.914,0.098,2.732,0.293s1.566,0.474,2.245,0.836c0.679,0.363,1.292,0.795,1.84,1.297
		c0.549,0.502,1.036,1.051,1.465,1.646l-4.071,3.151c-0.558-0.707-1.172-1.265-1.841-1.674c-0.669-0.408-1.478-0.613-2.426-0.613
		c-0.688,0-1.315,0.135-1.883,0.404s-1.055,0.637-1.464,1.102s-0.729,1.014-0.962,1.646s-0.349,1.301-0.349,2.008v0.056
		c0,0.725,0.116,1.408,0.349,2.05c0.232,0.641,0.553,1.194,0.962,1.659s0.896,0.832,1.464,1.102s1.194,0.404,1.883,0.404
		c0.502,0,0.962-0.057,1.38-0.168c0.419-0.111,0.799-0.273,1.144-0.487c0.344-0.214,0.669-0.465,0.976-0.753
		s0.609-0.609,0.906-0.963l4.071,2.9c-0.465,0.632-0.972,1.218-1.52,1.757c-0.549,0.539-1.171,1.004-1.868,1.395
		s-1.478,0.697-2.343,0.92C402.016,178.415,401.044,178.526,399.966,178.526z"/>
	<path fill="#4EA5DF" d="M420.741,178.526c-1.506,0-2.9-0.266-4.184-0.795c-1.282-0.53-2.389-1.25-3.318-2.161
		s-1.659-1.979-2.188-3.207c-0.53-1.227-0.795-2.537-0.795-3.932v-0.056c0-1.395,0.265-2.709,0.795-3.946
		c0.529-1.235,1.269-2.314,2.217-3.234s2.063-1.646,3.347-2.175c1.282-0.53,2.677-0.795,4.183-0.795s2.9,0.265,4.183,0.795
		c1.283,0.529,2.389,1.25,3.318,2.161s1.659,1.979,2.189,3.206c0.529,1.228,0.794,2.538,0.794,3.933v0.056
		c0,1.395-0.265,2.71-0.794,3.945c-0.53,1.237-1.27,2.314-2.217,3.235c-0.948,0.92-2.064,1.645-3.347,2.175
		C423.641,178.261,422.247,178.526,420.741,178.526z M420.783,173.646c0.745,0,1.426-0.14,2.041-0.419
		c0.615-0.278,1.137-0.655,1.565-1.129c0.429-0.475,0.765-1.027,1.007-1.659s0.364-1.301,0.364-2.008v-0.056
		c0-0.706-0.122-1.376-0.364-2.008s-0.587-1.189-1.034-1.673s-0.979-0.869-1.594-1.157s-1.296-0.433-2.042-0.433
		c-0.745,0-1.421,0.14-2.027,0.418c-0.605,0.279-1.128,0.655-1.566,1.13c-0.438,0.474-0.773,1.027-1.006,1.659
		c-0.233,0.632-0.35,1.301-0.35,2.008v0.056c0,0.706,0.121,1.376,0.363,2.008s0.583,1.189,1.021,1.673
		c0.438,0.483,0.965,0.869,1.58,1.157S420.037,173.646,420.783,173.646z"/>
	<path fill="#4EA5DF" d="M434.097,158.616h5.059l8.048,10.317v-10.317h5.326v19.52h-4.75l-8.356-10.708v10.708h-5.326V158.616z"/>
	<path fill="#4EA5DF" d="M463.656,178.471c-1.748,0-3.407-0.271-4.978-0.813c-1.571-0.543-2.961-1.356-4.169-2.441l3.012-3.605
		c1.952,1.562,4.062,2.343,6.33,2.343c0.725,0,1.277-0.116,1.659-0.348c0.381-0.232,0.571-0.562,0.571-0.989v-0.055
		c0-0.204-0.046-0.386-0.14-0.543c-0.093-0.158-0.265-0.311-0.516-0.459s-0.585-0.292-1.004-0.432
		c-0.418-0.14-0.962-0.283-1.631-0.432c-1.042-0.241-2.008-0.506-2.9-0.793c-0.893-0.288-1.669-0.659-2.328-1.114
		c-0.66-0.454-1.181-1.021-1.562-1.698c-0.382-0.677-0.572-1.517-0.572-2.519v-0.056c0-0.909,0.172-1.744,0.517-2.505
		c0.344-0.761,0.846-1.42,1.506-1.977c0.659-0.557,1.454-0.988,2.384-1.295c0.93-0.306,1.979-0.459,3.151-0.459
		c1.673,0,3.165,0.22,4.476,0.659c1.311,0.44,2.495,1.09,3.555,1.95l-2.704,3.832c-0.893-0.632-1.809-1.11-2.747-1.436
		s-1.846-0.488-2.719-0.488c-0.651,0-1.139,0.12-1.464,0.362c-0.326,0.241-0.488,0.538-0.488,0.891v0.056
		c0,0.223,0.051,0.417,0.153,0.584s0.279,0.32,0.53,0.46c0.251,0.139,0.595,0.278,1.031,0.417c0.437,0.14,0.99,0.283,1.659,0.432
		c1.115,0.241,2.124,0.524,3.025,0.849c0.902,0.325,1.669,0.72,2.301,1.184s1.115,1.025,1.45,1.684
		c0.335,0.659,0.502,1.443,0.502,2.353v0.056c0,1.002-0.19,1.893-0.571,2.672c-0.382,0.779-0.916,1.443-1.604,1.99
		c-0.688,0.548-1.516,0.965-2.482,1.253C465.924,178.326,464.846,178.471,463.656,178.471z"/>
	<path fill="#4EA5DF" d="M482.952,178.498c-1.395,0-2.649-0.177-3.765-0.529c-1.115-0.354-2.063-0.897-2.844-1.632
		c-0.781-0.734-1.381-1.663-1.799-2.788s-0.628-2.449-0.628-3.974v-10.959h5.521v10.847c0,1.413,0.322,2.459,0.969,3.138
		c0.646,0.679,1.513,1.018,2.601,1.018c1.089,0,1.955-0.325,2.601-0.976c0.646-0.65,0.969-1.664,0.969-3.04v-10.986h5.521v10.819
		c0,1.58-0.219,2.941-0.655,4.085s-1.051,2.082-1.84,2.816c-0.791,0.734-1.748,1.278-2.873,1.632
		C485.605,178.321,484.347,178.498,482.952,178.498z"/>
	<path fill="#4EA5DF" d="M495.306,158.616h5.41v14.779h9.453v4.74h-14.863V158.616z"/>
	<path fill="#4EA5DF" d="M517.251,163.356h-5.855v-4.74h17.121v4.74h-5.855v14.779h-5.41V163.356z"/>
	<path fill="#4EA5DF" d="M236.837,183.988h5.41v14.779h9.453v4.74h-14.863V183.988z"/>
	<path fill="#4EA5DF" d="M254.125,183.988h5.438v19.52h-5.438V183.988z"/>
	<path fill="#4EA5DF" d="M263.133,183.988h5.716l4.657,7.557l4.657-7.557h5.716v19.52h-5.382v-11.21l-4.978,7.641h-0.111
		l-4.95-7.585v11.154h-5.326V183.988z"/>
	<path fill="#4EA5DF" d="M287.449,183.988h5.438v19.52h-5.438V183.988z"/>
	<path fill="#4EA5DF" d="M301.224,188.729h-5.855v-4.74h17.121v4.74h-5.855v14.779h-5.41V188.729z"/>
	<path fill="#4EA5DF" d="M314.859,183.988h15.672v4.601h-10.346v2.956h9.37v4.267h-9.37v3.095h10.485v4.602h-15.812V183.988z"/>
	<path fill="#4EA5DF" d="M333.459,183.988h7.529c1.747,0,3.305,0.236,4.671,0.711c1.366,0.474,2.519,1.139,3.458,1.993
		c0.938,0.855,1.654,1.874,2.147,3.054c0.492,1.181,0.738,2.478,0.738,3.891v0.056c0,1.413-0.251,2.719-0.753,3.918
		s-1.227,2.235-2.175,3.109s-2.115,1.557-3.5,2.049c-1.385,0.493-2.951,0.739-4.698,0.739h-7.418V183.988z M341.08,198.712
		c1.623,0,2.93-0.428,3.918-1.283c0.989-0.854,1.484-2.072,1.484-3.653v-0.056c0-1.562-0.495-2.774-1.484-3.639
		c-0.988-0.864-2.295-1.297-3.918-1.297h-2.211v9.928H341.08z"/>
</g>
<g>
	<path fill="#011B72" d="M222.966,230.011c0.184-0.914,0.475-1.57,0.872-1.968c0.397-0.396,0.911-0.604,1.542-0.623l0.106,0.873
		c-0.44,0.046-0.766,0.187-0.979,0.422c-0.213,0.236-0.348,0.553-0.404,0.95h0.66l-0.458,2.217h-1.723L222.966,230.011z
		 M225.667,230.011c0.185-0.914,0.475-1.57,0.873-1.968c0.397-0.396,0.911-0.604,1.542-0.623l0.106,0.873
		c-0.439,0.046-0.766,0.187-0.979,0.422c-0.213,0.236-0.348,0.553-0.404,0.95h0.66l-0.458,2.217h-1.723L225.667,230.011z"/>
	<path fill="#011B72" d="M230.815,237.328c-1.454,0-2.535-0.596-3.244-1.788l1.234-1.357c0.298,0.415,0.613,0.732,0.947,0.949
		c0.333,0.217,0.713,0.325,1.138,0.325c0.333,0,0.606-0.092,0.819-0.277c0.213-0.185,0.319-0.43,0.319-0.734
		c0-0.12-0.02-0.229-0.059-0.325c-0.039-0.098-0.106-0.194-0.202-0.291c-0.096-0.098-0.225-0.199-0.388-0.305
		c-0.163-0.106-0.369-0.225-0.617-0.354c-0.241-0.13-0.472-0.271-0.691-0.423c-0.22-0.152-0.415-0.333-0.585-0.541
		c-0.17-0.207-0.305-0.445-0.404-0.713c-0.1-0.269-0.149-0.582-0.149-0.942c0-0.499,0.08-0.944,0.239-1.338
		c0.159-0.393,0.374-0.728,0.644-1.004c0.269-0.277,0.583-0.49,0.941-0.638c0.358-0.147,0.735-0.222,1.133-0.222
		c0.645,0,1.191,0.129,1.638,0.388c0.447,0.259,0.83,0.609,1.149,1.054l-1.127,1.469c-0.284-0.342-0.562-0.601-0.835-0.776
		s-0.59-0.264-0.952-0.264c-0.348,0-0.615,0.104-0.803,0.313c-0.188,0.208-0.282,0.432-0.282,0.672c0,0.13,0.021,0.242,0.064,0.34
		c0.042,0.097,0.113,0.191,0.213,0.284c0.099,0.092,0.232,0.189,0.399,0.291c0.167,0.102,0.377,0.222,0.633,0.359
		c0.255,0.139,0.491,0.287,0.707,0.444s0.404,0.337,0.564,0.54s0.285,0.438,0.377,0.707c0.092,0.268,0.138,0.577,0.138,0.929
		c0,0.508-0.082,0.963-0.245,1.364c-0.163,0.402-0.379,0.741-0.648,1.019c-0.27,0.277-0.583,0.487-0.941,0.631
		C231.58,237.257,231.206,237.328,230.815,237.328z"/>
	<path fill="#011B72" d="M236.57,227.489h5.563l-0.394,1.898h-3.936l-0.404,1.981h3.457l-0.394,1.871h-3.457l-0.425,2.051h4
		l-0.394,1.898h-5.617L236.57,227.489z"/>
	<path fill="#011B72" d="M245.739,237.355c-0.51,0-0.98-0.099-1.409-0.298c-0.429-0.198-0.8-0.48-1.111-0.845
		c-0.313-0.365-0.555-0.809-0.729-1.331c-0.174-0.521-0.26-1.106-0.26-1.753c0-0.776,0.119-1.513,0.356-2.21
		c0.238-0.697,0.56-1.314,0.968-1.851c0.408-0.535,0.886-0.96,1.436-1.274c0.549-0.314,1.14-0.472,1.771-0.472
		c0.716,0,1.317,0.186,1.803,0.555s0.877,0.873,1.175,1.511l-1.351,1.233c-0.22-0.407-0.468-0.73-0.745-0.971
		c-0.277-0.24-0.638-0.36-1.085-0.36c-0.34,0-0.668,0.1-0.984,0.298c-0.316,0.199-0.596,0.467-0.84,0.805
		c-0.245,0.337-0.44,0.734-0.585,1.191c-0.146,0.457-0.218,0.944-0.218,1.462c0,0.352,0.044,0.67,0.133,0.956
		c0.089,0.287,0.214,0.534,0.378,0.741c0.163,0.208,0.354,0.367,0.574,0.479c0.22,0.11,0.464,0.166,0.734,0.166
		c0.362,0,0.674-0.085,0.936-0.256s0.532-0.404,0.809-0.7l1.063,1.441c-0.361,0.435-0.766,0.79-1.212,1.067
		C246.899,237.217,246.363,237.355,245.739,237.355z"/>
	<path fill="#011B72" d="M252.887,237.342c-0.433,0-0.821-0.074-1.165-0.222c-0.344-0.147-0.637-0.36-0.878-0.638
		c-0.241-0.277-0.425-0.618-0.553-1.025c-0.128-0.406-0.191-0.868-0.191-1.386c0-0.48,0.06-0.998,0.181-1.552l1.032-5.03h1.638
		l-1.074,5.224c-0.036,0.167-0.064,0.333-0.085,0.499c-0.021,0.167-0.032,0.352-0.032,0.555c0,0.48,0.11,0.868,0.33,1.164
		s0.542,0.443,0.968,0.443c0.482,0,0.886-0.203,1.212-0.609c0.326-0.425,0.567-1.025,0.723-1.802l1.128-5.474h1.638l-1.191,5.778
		c-0.255,1.257-0.638,2.218-1.148,2.883c-0.305,0.397-0.665,0.695-1.08,0.894C253.924,237.242,253.44,237.342,252.887,237.342z"/>
	<path fill="#011B72" d="M259.489,227.489h2.712c0.553,0,1.022,0.081,1.409,0.242c0.386,0.162,0.703,0.404,0.949,0.728
		c0.38,0.499,0.571,1.15,0.571,1.954c0,0.471-0.058,0.9-0.175,1.289c-0.116,0.388-0.283,0.725-0.502,1.011
		c-0.423,0.555-0.997,0.942-1.72,1.164l1.266,3.313h-1.861l-1.149-3.104h-1.223l-0.638,3.104h-1.638L259.489,227.489z
		 M261.62,232.215c0.319,0,0.608-0.052,0.867-0.153c0.259-0.103,0.47-0.26,0.633-0.474c0.206-0.27,0.309-0.599,0.309-0.989
		c0-0.315-0.078-0.575-0.234-0.779c-0.206-0.27-0.567-0.404-1.085-0.404h-1.372l-0.575,2.8H261.62z"/>
	<path fill="#011B72" d="M267.3,227.489h1.638l-2,9.7H265.3L267.3,227.489z"/>
	<path fill="#011B72" d="M270.8,227.489h1.51l2.17,6.166l1.276-6.166h1.617l-2,9.7h-1.394l-2.255-6.36l-1.308,6.36H268.8
		L270.8,227.489z"/>
	<path fill="#011B72" d="M281.234,237.355c-0.426,0-0.848-0.083-1.266-0.249c-0.419-0.166-0.792-0.423-1.123-0.77
		c-0.33-0.346-0.597-0.785-0.803-1.316c-0.206-0.531-0.309-1.157-0.309-1.878c0-0.757,0.117-1.484,0.351-2.183
		c0.234-0.697,0.557-1.316,0.968-1.856c0.411-0.541,0.9-0.973,1.468-1.296s1.188-0.485,1.862-0.485c0.39,0,0.744,0.047,1.063,0.139
		c0.319,0.093,0.603,0.215,0.851,0.367c0.248,0.152,0.466,0.331,0.654,0.534c0.188,0.203,0.346,0.415,0.473,0.637l-1.212,1.4
		c-0.22-0.314-0.484-0.58-0.792-0.797c-0.309-0.218-0.697-0.326-1.165-0.326c-0.397,0-0.768,0.104-1.111,0.312
		c-0.344,0.208-0.642,0.485-0.894,0.832c-0.252,0.347-0.451,0.748-0.596,1.205c-0.146,0.458-0.218,0.94-0.218,1.448
		c0,0.379,0.05,0.714,0.149,1.005s0.236,0.534,0.41,0.728c0.174,0.194,0.376,0.342,0.606,0.443c0.23,0.103,0.477,0.152,0.739,0.152
		c0.291,0,0.544-0.036,0.76-0.11s0.406-0.162,0.569-0.264l0.351-1.579h-1.649l0.383-1.844h3.234l-1.053,4.837
		c-0.369,0.268-0.771,0.487-1.207,0.658C282.292,237.271,281.794,237.355,281.234,237.355z"/>
	<path fill="#011B72" d="M290.637,227.489h2.361c0.532,0,0.987,0.076,1.367,0.229c0.379,0.152,0.704,0.404,0.973,0.755
		c0.383,0.499,0.574,1.164,0.574,1.996c0,0.601-0.094,1.136-0.282,1.607c-0.188,0.471-0.443,0.868-0.766,1.191
		s-0.704,0.568-1.143,0.734c-0.44,0.166-0.915,0.25-1.426,0.25h-1.415l-0.606,2.938h-1.638L290.637,227.489z M292.393,232.381
		c0.546,0,0.985-0.15,1.319-0.45c0.333-0.301,0.5-0.728,0.5-1.282c0-0.323-0.082-0.591-0.245-0.804
		c-0.114-0.147-0.25-0.257-0.41-0.325c-0.16-0.069-0.363-0.104-0.612-0.104h-1.063l-0.606,2.966H292.393z"/>
	<path fill="#011B72" d="M297.87,227.489h5.563l-0.394,1.898h-3.937l-0.404,1.981h3.458l-0.394,1.871h-3.458l-0.425,2.051h3.999
		l-0.394,1.898h-5.616L297.87,227.489z"/>
	<path fill="#011B72" d="M306.933,237.355c-0.511,0-0.975-0.108-1.394-0.325c-0.418-0.217-0.776-0.52-1.074-0.908
		c-0.298-0.388-0.528-0.843-0.691-1.364c-0.163-0.522-0.244-1.088-0.244-1.698c0-0.721,0.107-1.425,0.324-2.113
		c0.216-0.688,0.521-1.3,0.915-1.836s0.865-0.968,1.414-1.296c0.55-0.328,1.158-0.492,1.824-0.492c0.511,0,0.976,0.109,1.394,0.326
		c0.419,0.217,0.776,0.52,1.074,0.907c0.298,0.389,0.528,0.844,0.691,1.365c0.163,0.522,0.245,1.088,0.245,1.697
		c0,0.721-0.108,1.426-0.324,2.113c-0.217,0.688-0.521,1.301-0.915,1.837c-0.394,0.535-0.865,0.968-1.415,1.296
		C308.207,237.191,307.6,237.355,306.933,237.355z M307.124,235.388c0.391,0,0.745-0.11,1.064-0.332
		c0.318-0.222,0.59-0.506,0.813-0.853s0.396-0.736,0.521-1.171c0.124-0.435,0.186-0.859,0.186-1.275c0-0.36-0.041-0.69-0.122-0.99
		c-0.082-0.301-0.202-0.562-0.361-0.783c-0.16-0.222-0.358-0.393-0.596-0.513c-0.238-0.12-0.51-0.181-0.814-0.181
		c-0.39,0-0.744,0.111-1.063,0.333s-0.59,0.506-0.813,0.853c-0.224,0.346-0.397,0.736-0.521,1.171s-0.186,0.859-0.186,1.274
		c0,0.36,0.04,0.691,0.122,0.991c0.081,0.3,0.202,0.562,0.361,0.783c0.16,0.222,0.358,0.393,0.596,0.513
		S306.819,235.388,307.124,235.388z"/>
	<path fill="#011B72" d="M313.783,227.489h2.361c0.531,0,0.987,0.076,1.366,0.229c0.38,0.152,0.704,0.404,0.974,0.755
		c0.383,0.499,0.574,1.164,0.574,1.996c0,0.601-0.094,1.136-0.282,1.607c-0.188,0.471-0.442,0.868-0.766,1.191
		c-0.322,0.323-0.704,0.568-1.144,0.734s-0.914,0.25-1.425,0.25h-1.415l-0.606,2.938h-1.638L313.783,227.489z M315.538,232.381
		c0.546,0,0.985-0.15,1.318-0.45c0.334-0.301,0.5-0.728,0.5-1.282c0-0.323-0.081-0.591-0.244-0.804
		c-0.113-0.147-0.25-0.257-0.41-0.325c-0.159-0.069-0.363-0.104-0.611-0.104h-1.063l-0.606,2.966H315.538z"/>
	<path fill="#011B72" d="M321.016,227.489h1.639l-1.596,7.76h3.712l-0.404,1.94h-5.35L321.016,227.489z"/>
	<path fill="#011B72" d="M327.674,227.489h5.563l-0.394,1.898h-3.936l-0.404,1.981h3.457l-0.394,1.871h-3.457l-0.426,2.051h4
		l-0.394,1.898h-5.616L327.674,227.489z"/>
	<path fill="#011B72" d="M331.972,238.562c0.439-0.047,0.766-0.188,0.979-0.423s0.347-0.552,0.404-0.949h-0.66l0.458-2.217h1.723
		l-0.383,1.87c-0.185,0.915-0.476,1.57-0.872,1.968c-0.397,0.397-0.911,0.605-1.543,0.624L331.972,238.562z"/>
	<path fill="#011B72" d="M341.321,227.489h2.361c0.531,0,0.987,0.076,1.366,0.229c0.38,0.152,0.704,0.404,0.974,0.755
		c0.383,0.499,0.574,1.164,0.574,1.996c0,0.601-0.094,1.136-0.282,1.607c-0.188,0.471-0.442,0.868-0.766,1.191
		c-0.322,0.323-0.704,0.568-1.144,0.734s-0.914,0.25-1.425,0.25h-1.415l-0.606,2.938h-1.638L341.321,227.489z M343.076,232.381
		c0.546,0,0.985-0.15,1.318-0.45c0.334-0.301,0.5-0.728,0.5-1.282c0-0.323-0.081-0.591-0.244-0.804
		c-0.113-0.147-0.25-0.257-0.41-0.325c-0.159-0.069-0.363-0.104-0.611-0.104h-1.063l-0.606,2.966H343.076z"/>
	<path fill="#011B72" d="M348.554,227.489h1.639l-1.596,7.76h3.712l-0.403,1.94h-5.351L348.554,227.489z"/>
	<path fill="#011B72" d="M357.681,227.42h1.574l1.182,9.77h-1.681l-0.234-2.176h-3.148l-1.128,2.176h-1.766L357.681,227.42z
		 M358.33,233.143l-0.341-3.201l-1.638,3.201H358.33z"/>
	<path fill="#011B72" d="M365.445,237.355c-0.511,0-0.98-0.099-1.409-0.298c-0.429-0.198-0.8-0.48-1.111-0.845
		c-0.313-0.365-0.556-0.809-0.729-1.331c-0.174-0.521-0.261-1.106-0.261-1.753c0-0.776,0.118-1.513,0.356-2.21
		c0.237-0.697,0.56-1.314,0.968-1.851c0.407-0.535,0.886-0.96,1.436-1.274s1.14-0.472,1.771-0.472c0.716,0,1.317,0.186,1.803,0.555
		s0.878,0.873,1.176,1.511l-1.352,1.233c-0.22-0.407-0.468-0.73-0.744-0.971s-0.639-0.36-1.085-0.36c-0.341,0-0.669,0.1-0.984,0.298
		c-0.315,0.199-0.596,0.467-0.84,0.805c-0.245,0.337-0.439,0.734-0.585,1.191s-0.218,0.944-0.218,1.462
		c0,0.352,0.044,0.67,0.133,0.956c0.088,0.287,0.214,0.534,0.377,0.741c0.163,0.208,0.354,0.367,0.575,0.479
		c0.22,0.11,0.464,0.166,0.733,0.166c0.361,0,0.674-0.085,0.937-0.256c0.262-0.171,0.531-0.404,0.808-0.7l1.064,1.441
		c-0.362,0.435-0.767,0.79-1.213,1.067C366.604,237.217,366.069,237.355,365.445,237.355z"/>
	<path fill="#011B72" d="M371.072,227.489h5.563l-0.394,1.898h-3.936l-0.404,1.981h3.457l-0.394,1.871h-3.457l-0.426,2.051h4
		l-0.394,1.898h-5.616L371.072,227.489z"/>
	<path fill="#011B72" d="M379.156,237.328c-1.453,0-2.535-0.596-3.244-1.788l1.234-1.357c0.298,0.415,0.613,0.732,0.946,0.949
		s0.713,0.325,1.138,0.325c0.334,0,0.606-0.092,0.819-0.277c0.213-0.185,0.319-0.43,0.319-0.734c0-0.12-0.02-0.229-0.059-0.325
		c-0.039-0.098-0.106-0.194-0.202-0.291c-0.096-0.098-0.226-0.199-0.389-0.305c-0.163-0.106-0.368-0.225-0.616-0.354
		c-0.241-0.13-0.472-0.271-0.691-0.423s-0.415-0.333-0.585-0.541c-0.171-0.207-0.306-0.445-0.404-0.713
		c-0.1-0.269-0.149-0.582-0.149-0.942c0-0.499,0.08-0.944,0.239-1.338c0.16-0.393,0.374-0.728,0.644-1.004
		c0.27-0.277,0.584-0.49,0.941-0.638c0.358-0.147,0.736-0.222,1.133-0.222c0.646,0,1.191,0.129,1.639,0.388
		c0.446,0.259,0.829,0.609,1.148,1.054l-1.127,1.469c-0.284-0.342-0.563-0.601-0.836-0.776c-0.272-0.176-0.59-0.264-0.951-0.264
		c-0.348,0-0.615,0.104-0.804,0.313c-0.188,0.208-0.281,0.432-0.281,0.672c0,0.13,0.021,0.242,0.063,0.34
		c0.043,0.097,0.113,0.191,0.213,0.284c0.099,0.092,0.232,0.189,0.398,0.291c0.167,0.102,0.378,0.222,0.633,0.359
		c0.256,0.139,0.491,0.287,0.708,0.444c0.216,0.157,0.404,0.337,0.563,0.54s0.285,0.438,0.378,0.707
		c0.092,0.268,0.138,0.577,0.138,0.929c0,0.508-0.081,0.963-0.244,1.364c-0.163,0.402-0.38,0.741-0.649,1.019
		s-0.583,0.487-0.941,0.631C379.921,237.257,379.546,237.328,379.156,237.328z"/>
	<path fill="#011B72" d="M390.569,227.42h1.574l1.182,9.77h-1.681l-0.234-2.176h-3.148l-1.128,2.176h-1.766L390.569,227.42z
		 M391.219,233.143l-0.341-3.201l-1.638,3.201H391.219z"/>
	<path fill="#011B72" d="M396.238,227.489h1.511l2.17,6.166l1.276-6.166h1.617l-2,9.7h-1.394l-2.255-6.36l-1.309,6.36h-1.616
		L396.238,227.489z"/>
	<path fill="#011B72" d="M404.6,227.489h2.17c0.724,0,1.319,0.115,1.787,0.346c0.469,0.231,0.844,0.531,1.128,0.901
		c0.539,0.702,0.809,1.648,0.809,2.841c0,0.729-0.104,1.418-0.309,2.064c-0.206,0.647-0.511,1.233-0.915,1.76
		c-0.446,0.582-0.993,1.026-1.638,1.331c-0.646,0.305-1.4,0.457-2.266,0.457h-2.766L404.6,227.489z M405.558,235.264
		c0.496,0,0.961-0.1,1.394-0.299c0.432-0.198,0.798-0.491,1.096-0.88c0.24-0.313,0.425-0.679,0.553-1.095
		c0.128-0.415,0.191-0.859,0.191-1.33c0-0.646-0.146-1.159-0.437-1.538c-0.163-0.213-0.383-0.384-0.659-0.513
		c-0.276-0.13-0.628-0.194-1.053-0.194h-0.798l-1.213,5.849H405.558z"/>
	<path fill="#011B72" d="M418.522,227.42h1.574l1.182,9.77h-1.681l-0.234-2.176h-3.148l-1.128,2.176h-1.766L418.522,227.42z
		 M419.172,233.143l-0.341-3.201l-1.638,3.201H419.172z"/>
	<path fill="#011B72" d="M425.203,237.328c-1.453,0-2.535-0.596-3.244-1.788l1.234-1.357c0.298,0.415,0.613,0.732,0.946,0.949
		s0.713,0.325,1.138,0.325c0.334,0,0.606-0.092,0.819-0.277c0.213-0.185,0.319-0.43,0.319-0.734c0-0.12-0.02-0.229-0.059-0.325
		c-0.039-0.098-0.106-0.194-0.202-0.291c-0.096-0.098-0.226-0.199-0.389-0.305c-0.163-0.106-0.368-0.225-0.616-0.354
		c-0.241-0.13-0.472-0.271-0.691-0.423s-0.415-0.333-0.585-0.541c-0.171-0.207-0.306-0.445-0.404-0.713
		c-0.1-0.269-0.149-0.582-0.149-0.942c0-0.499,0.08-0.944,0.239-1.338c0.16-0.393,0.374-0.728,0.644-1.004
		c0.27-0.277,0.584-0.49,0.941-0.638c0.358-0.147,0.736-0.222,1.133-0.222c0.646,0,1.191,0.129,1.639,0.388
		c0.446,0.259,0.829,0.609,1.148,1.054l-1.127,1.469c-0.284-0.342-0.563-0.601-0.836-0.776c-0.272-0.176-0.59-0.264-0.951-0.264
		c-0.348,0-0.615,0.104-0.804,0.313c-0.188,0.208-0.281,0.432-0.281,0.672c0,0.13,0.021,0.242,0.063,0.34
		c0.043,0.097,0.113,0.191,0.213,0.284c0.099,0.092,0.232,0.189,0.398,0.291c0.167,0.102,0.378,0.222,0.633,0.359
		c0.256,0.139,0.491,0.287,0.708,0.444c0.216,0.157,0.404,0.337,0.563,0.54s0.285,0.438,0.378,0.707
		c0.092,0.268,0.138,0.577,0.138,0.929c0,0.508-0.081,0.963-0.244,1.364c-0.163,0.402-0.38,0.741-0.649,1.019
		s-0.583,0.487-0.941,0.631C425.968,237.257,425.593,237.328,425.203,237.328z"/>
	<path fill="#011B72" d="M431.968,237.328c-1.453,0-2.535-0.596-3.244-1.788l1.234-1.357c0.298,0.415,0.613,0.732,0.946,0.949
		s0.713,0.325,1.138,0.325c0.334,0,0.606-0.092,0.819-0.277c0.213-0.185,0.319-0.43,0.319-0.734c0-0.12-0.02-0.229-0.059-0.325
		c-0.039-0.098-0.106-0.194-0.202-0.291c-0.096-0.098-0.226-0.199-0.389-0.305c-0.163-0.106-0.368-0.225-0.616-0.354
		c-0.241-0.13-0.472-0.271-0.691-0.423s-0.415-0.333-0.585-0.541c-0.171-0.207-0.306-0.445-0.404-0.713
		c-0.1-0.269-0.149-0.582-0.149-0.942c0-0.499,0.08-0.944,0.239-1.338c0.16-0.393,0.374-0.728,0.644-1.004
		c0.27-0.277,0.584-0.49,0.941-0.638c0.358-0.147,0.736-0.222,1.133-0.222c0.646,0,1.191,0.129,1.639,0.388
		c0.446,0.259,0.829,0.609,1.148,1.054l-1.127,1.469c-0.284-0.342-0.563-0.601-0.836-0.776c-0.272-0.176-0.59-0.264-0.951-0.264
		c-0.348,0-0.615,0.104-0.804,0.313c-0.188,0.208-0.281,0.432-0.281,0.672c0,0.13,0.021,0.242,0.063,0.34
		c0.043,0.097,0.113,0.191,0.213,0.284c0.099,0.092,0.232,0.189,0.398,0.291c0.167,0.102,0.378,0.222,0.633,0.359
		c0.256,0.139,0.491,0.287,0.708,0.444c0.216,0.157,0.404,0.337,0.563,0.54s0.285,0.438,0.378,0.707
		c0.092,0.268,0.138,0.577,0.138,0.929c0,0.508-0.081,0.963-0.244,1.364c-0.163,0.402-0.38,0.741-0.649,1.019
		s-0.583,0.487-0.941,0.631C432.732,237.257,432.357,237.328,431.968,237.328z"/>
	<path fill="#011B72" d="M437.723,227.489h5.563l-0.394,1.898h-3.936l-0.404,1.981h3.457l-0.394,1.871h-3.457l-0.426,2.051h4
		l-0.394,1.898h-5.616L437.723,227.489z"/>
	<path fill="#011B72" d="M445.956,229.457h-2.266l0.404-1.968h6.169l-0.404,1.968h-2.266l-1.596,7.732h-1.638L445.956,229.457z"/>
	<path fill="#011B72" d="M452.401,237.328c-1.453,0-2.535-0.596-3.244-1.788l1.234-1.357c0.298,0.415,0.613,0.732,0.946,0.949
		s0.713,0.325,1.138,0.325c0.334,0,0.606-0.092,0.819-0.277c0.213-0.185,0.319-0.43,0.319-0.734c0-0.12-0.02-0.229-0.059-0.325
		c-0.039-0.098-0.106-0.194-0.202-0.291c-0.096-0.098-0.226-0.199-0.389-0.305c-0.163-0.106-0.368-0.225-0.616-0.354
		c-0.241-0.13-0.472-0.271-0.691-0.423s-0.415-0.333-0.585-0.541c-0.171-0.207-0.306-0.445-0.404-0.713
		c-0.1-0.269-0.149-0.582-0.149-0.942c0-0.499,0.08-0.944,0.239-1.338c0.16-0.393,0.374-0.728,0.644-1.004
		c0.27-0.277,0.584-0.49,0.941-0.638c0.358-0.147,0.736-0.222,1.133-0.222c0.646,0,1.191,0.129,1.639,0.388
		c0.446,0.259,0.829,0.609,1.148,1.054l-1.127,1.469c-0.284-0.342-0.563-0.601-0.836-0.776c-0.272-0.176-0.59-0.264-0.951-0.264
		c-0.348,0-0.615,0.104-0.804,0.313c-0.188,0.208-0.281,0.432-0.281,0.672c0,0.13,0.021,0.242,0.063,0.34
		c0.043,0.097,0.113,0.191,0.213,0.284c0.099,0.092,0.232,0.189,0.398,0.291c0.167,0.102,0.378,0.222,0.633,0.359
		c0.256,0.139,0.491,0.287,0.708,0.444c0.216,0.157,0.404,0.337,0.563,0.54s0.285,0.438,0.378,0.707
		c0.092,0.268,0.138,0.577,0.138,0.929c0,0.508-0.081,0.963-0.244,1.364c-0.163,0.402-0.38,0.741-0.649,1.019
		s-0.583,0.487-0.941,0.631C453.166,237.257,452.791,237.328,452.401,237.328z"/>
	<path fill="#011B72" d="M460.603,227.489h1.702l0.191,6.568l2.999-6.597h1.404l0.341,6.597l2.893-6.568h1.852l-4.553,9.77h-1.521
		l-0.361-6.223l-2.915,6.223h-1.499L460.603,227.489z"/>
	<path fill="#011B72" d="M473.207,227.489h1.638l-2,9.7h-1.638L473.207,227.489z"/>
	<path fill="#011B72" d="M477.866,229.457h-2.266l0.404-1.968h6.169l-0.404,1.968h-2.266l-1.596,7.732h-1.638L477.866,229.457z"/>
	<path fill="#011B72" d="M483.301,227.489h1.639l-0.787,3.838h2.979l0.787-3.838h1.638l-2,9.7h-1.638l0.809-3.895h-2.979
		l-0.809,3.895h-1.638L483.301,227.489z"/>
	<path fill="#011B72" d="M494.523,227.489h2.361c0.531,0,0.987,0.076,1.366,0.229c0.38,0.152,0.704,0.404,0.974,0.755
		c0.383,0.499,0.574,1.164,0.574,1.996c0,0.601-0.094,1.136-0.282,1.607c-0.188,0.471-0.442,0.868-0.766,1.191
		c-0.322,0.323-0.704,0.568-1.144,0.734s-0.914,0.25-1.425,0.25h-1.415l-0.606,2.938h-1.638L494.523,227.489z M496.278,232.381
		c0.546,0,0.985-0.15,1.318-0.45c0.334-0.301,0.5-0.728,0.5-1.282c0-0.323-0.081-0.591-0.244-0.804
		c-0.113-0.147-0.25-0.257-0.41-0.325c-0.159-0.069-0.363-0.104-0.611-0.104h-1.063l-0.606,2.966H496.278z"/>
	<path fill="#011B72" d="M501.753,227.489h2.712c0.554,0,1.023,0.081,1.409,0.242c0.386,0.162,0.702,0.404,0.949,0.728
		c0.38,0.499,0.57,1.15,0.57,1.954c0,0.471-0.058,0.9-0.174,1.289c-0.117,0.388-0.284,0.725-0.502,1.011
		c-0.424,0.555-0.997,0.942-1.721,1.164l1.266,3.313h-1.861l-1.148-3.104h-1.224l-0.638,3.104h-1.639L501.753,227.489z
		 M503.884,232.215c0.319,0,0.607-0.052,0.867-0.153c0.259-0.103,0.47-0.26,0.633-0.474c0.205-0.27,0.309-0.599,0.309-0.989
		c0-0.315-0.078-0.575-0.234-0.779c-0.206-0.27-0.567-0.404-1.085-0.404h-1.372l-0.574,2.8H503.884z"/>
	<path fill="#011B72" d="M509.488,227.489h5.563l-0.394,1.898h-3.936l-0.404,1.981h3.457l-0.394,1.871h-3.457l-0.426,2.051h4
		l-0.394,1.898h-5.616L509.488,227.489z"/>
	<path fill="#011B72" d="M518.658,237.355c-0.511,0-0.98-0.099-1.409-0.298c-0.429-0.198-0.8-0.48-1.111-0.845
		c-0.313-0.365-0.556-0.809-0.729-1.331c-0.174-0.521-0.261-1.106-0.261-1.753c0-0.776,0.118-1.513,0.356-2.21
		c0.237-0.697,0.56-1.314,0.968-1.851c0.407-0.535,0.886-0.96,1.436-1.274s1.14-0.472,1.771-0.472c0.716,0,1.317,0.186,1.803,0.555
		s0.878,0.873,1.176,1.511l-1.352,1.233c-0.22-0.407-0.468-0.73-0.744-0.971s-0.639-0.36-1.085-0.36c-0.341,0-0.669,0.1-0.984,0.298
		c-0.315,0.199-0.596,0.467-0.84,0.805c-0.245,0.337-0.439,0.734-0.585,1.191s-0.218,0.944-0.218,1.462
		c0,0.352,0.044,0.67,0.133,0.956c0.088,0.287,0.214,0.534,0.377,0.741c0.163,0.208,0.354,0.367,0.575,0.479
		c0.22,0.11,0.464,0.166,0.733,0.166c0.361,0,0.674-0.085,0.937-0.256c0.262-0.171,0.531-0.404,0.808-0.7l1.064,1.441
		c-0.362,0.435-0.767,0.79-1.213,1.067C519.817,237.217,519.282,237.355,518.658,237.355z"/>
	<path fill="#011B72" d="M524.359,227.489h1.638l-2,9.7h-1.638L524.359,227.489z"/>
	<path fill="#011B72" d="M528.869,237.328c-1.453,0-2.535-0.596-3.244-1.788l1.234-1.357c0.298,0.415,0.613,0.732,0.946,0.949
		s0.713,0.325,1.138,0.325c0.334,0,0.606-0.092,0.819-0.277c0.213-0.185,0.319-0.43,0.319-0.734c0-0.12-0.02-0.229-0.059-0.325
		c-0.039-0.098-0.106-0.194-0.202-0.291c-0.096-0.098-0.226-0.199-0.389-0.305c-0.163-0.106-0.368-0.225-0.616-0.354
		c-0.241-0.13-0.472-0.271-0.691-0.423s-0.415-0.333-0.585-0.541c-0.171-0.207-0.306-0.445-0.404-0.713
		c-0.1-0.269-0.149-0.582-0.149-0.942c0-0.499,0.08-0.944,0.239-1.338c0.16-0.393,0.374-0.728,0.644-1.004
		c0.27-0.277,0.584-0.49,0.941-0.638c0.358-0.147,0.736-0.222,1.133-0.222c0.646,0,1.191,0.129,1.639,0.388
		c0.446,0.259,0.829,0.609,1.148,1.054l-1.127,1.469c-0.284-0.342-0.563-0.601-0.836-0.776c-0.272-0.176-0.59-0.264-0.951-0.264
		c-0.348,0-0.615,0.104-0.804,0.313c-0.188,0.208-0.281,0.432-0.281,0.672c0,0.13,0.021,0.242,0.063,0.34
		c0.043,0.097,0.113,0.191,0.213,0.284c0.099,0.092,0.232,0.189,0.398,0.291c0.167,0.102,0.378,0.222,0.633,0.359
		c0.256,0.139,0.491,0.287,0.708,0.444c0.216,0.157,0.404,0.337,0.563,0.54s0.285,0.438,0.378,0.707
		c0.092,0.268,0.138,0.577,0.138,0.929c0,0.508-0.081,0.963-0.244,1.364c-0.163,0.402-0.38,0.741-0.649,1.019
		s-0.583,0.487-0.941,0.631C529.634,237.257,529.259,237.328,528.869,237.328z"/>
	<path fill="#011B72" d="M534.698,227.489h1.638l-2,9.7h-1.638L534.698,227.489z"/>
	<path fill="#011B72" d="M540.187,237.355c-0.511,0-0.975-0.108-1.394-0.325c-0.418-0.217-0.776-0.52-1.074-0.908
		c-0.298-0.388-0.528-0.843-0.691-1.364c-0.163-0.522-0.244-1.088-0.244-1.698c0-0.721,0.107-1.425,0.324-2.113
		c0.216-0.688,0.521-1.3,0.915-1.836s0.865-0.968,1.414-1.296c0.55-0.328,1.158-0.492,1.824-0.492c0.511,0,0.976,0.109,1.394,0.326
		c0.419,0.217,0.776,0.52,1.074,0.907c0.298,0.389,0.528,0.844,0.691,1.365c0.163,0.522,0.245,1.088,0.245,1.697
		c0,0.721-0.108,1.426-0.324,2.113c-0.217,0.688-0.521,1.301-0.915,1.837c-0.394,0.535-0.865,0.968-1.415,1.296
		C541.461,237.191,540.854,237.355,540.187,237.355z M540.378,235.388c0.391,0,0.745-0.11,1.064-0.332
		c0.318-0.222,0.59-0.506,0.813-0.853s0.396-0.736,0.521-1.171c0.124-0.435,0.186-0.859,0.186-1.275c0-0.36-0.041-0.69-0.122-0.99
		c-0.082-0.301-0.202-0.562-0.361-0.783c-0.16-0.222-0.358-0.393-0.596-0.513c-0.238-0.12-0.51-0.181-0.814-0.181
		c-0.39,0-0.744,0.111-1.063,0.333s-0.59,0.506-0.813,0.853c-0.224,0.346-0.397,0.736-0.521,1.171s-0.186,0.859-0.186,1.274
		c0,0.36,0.04,0.691,0.122,0.991c0.081,0.3,0.202,0.562,0.361,0.783c0.16,0.222,0.358,0.393,0.596,0.513
		S540.073,235.388,540.378,235.388z"/>
	<path fill="#011B72" d="M547.047,227.489h1.511l2.17,6.166l1.276-6.166h1.617l-2,9.7h-1.394l-2.255-6.36l-1.309,6.36h-1.616
		L547.047,227.489z"/>
	<path fill="#011B72" d="M554.11,231.078c0.439-0.046,0.766-0.188,0.979-0.423s0.347-0.552,0.404-0.949h-0.66l0.458-2.217h1.723
		l-0.383,1.87c-0.185,0.915-0.476,1.571-0.872,1.968c-0.397,0.397-0.911,0.605-1.542,0.624L554.11,231.078z M556.812,231.078
		c0.439-0.046,0.766-0.188,0.979-0.423s0.348-0.552,0.404-0.949h-0.659l0.457-2.217h1.724l-0.383,1.87
		c-0.185,0.915-0.476,1.571-0.872,1.968c-0.397,0.397-0.912,0.605-1.543,0.624L556.812,231.078z"/>
</g>
<line fill="none" stroke="#011B72" stroke-width="1.5" stroke-miterlimit="10" x1="219.813" y1="215.977" x2="561.486" y2="215.977"/>
</svg>
