<?xml version="1.0" encoding="utf-8"?>
<svg version="1.1" id="Layer_1" xmlns="http://www.w3.org/2000/svg" x="0px" y="0px" width="595.28px" height="309.998px" viewBox="0 0 595.28 309.998" enable-background="new 0 0 595.28 309.998">
  <g transform="matrix(1.33777, 0, 0, 1.33777, 133.270996, -60.706501)" style="">
    <path fill-rule="evenodd" clip-rule="evenodd" fill="#011B72" d="M206.627,154.959c0,15.819-0.027,31.635,0.039,47.452 c0.006,1.818-0.599,2.766-2.189,3.678c-27.453,15.77-54.867,31.607-82.265,47.467c-1.381,0.8-2.467,0.871-3.885,0.046 c-27.408-15.86-54.832-31.694-82.289-47.466c-1.665-0.956-2.249-2.014-2.244-3.904c0.051-31.634,0.045-63.268,0-94.902 c-0.002-1.642,0.58-2.497,1.998-3.312c27.511-15.815,54.996-31.679,82.46-47.579c1.393-0.806,2.436-0.861,3.865-0.031 c23.379,13.555,46.791,27.053,70.199,40.56c4.012,2.316,7.982,4.715,12.076,6.882c1.717,0.91,2.268,2.004,2.26,3.896 c-0.068,15.737-0.039,31.477-0.039,47.214C206.618,154.959,206.623,154.959,206.627,154.959z M192.021,155.086 c-0.003,0-0.008,0-0.014,0c0-12.981-0.031-25.965,0.038-38.947c0.01-1.802-0.566-2.826-2.145-3.73 c-22.49-12.9-44.955-25.852-67.39-38.848c-1.645-0.954-2.896-0.955-4.543-0.001c-22.441,12.987-44.908,25.927-67.406,38.813 c-1.682,0.962-2.182,2.102-2.178,3.958c0.052,25.728,0.063,51.458-0.01,77.185c-0.008,2.102,0.663,3.283,2.461,4.295 c7.873,4.425,15.682,8.967,23.508,13.475c14.499,8.352,29.006,16.69,43.475,25.094c1.689,0.98,3.051,1.156,4.76,0.011 c2.344-1.57,4.881-2.847,7.33-4.257c19.602-11.293,39.176-22.633,58.828-33.83c2.41-1.373,3.395-2.848,3.36-5.686 C191.93,180.11,192.021,167.599,192.021,155.086z"/>
    <path fill-rule="evenodd" clip-rule="evenodd" fill="#011B72" d="M124.993,86.311c0,0,38.148,21.88,55.18,31.65 c1.453,0.835,2.188,1.741,2.109,3.501c-0.137,3.061-0.094,6.135-0.01,9.2c0.045,1.651-0.62,2.234-2.229,2.199 c-3.379-0.076-6.766-0.104-10.145-0.017c-1.734,0.045-2.58-0.567-2.278-2.314c0.393-2.253-0.744-3.364-2.597-4.405 c-7.531-4.223-24.221-13.806-25.48-14.438c0,28.966,0,57.509,0,86.43c0.904-0.375,18.301-10.188,26.291-14.729 c1.342-0.76,1.834-1.689,1.811-3.214c-0.078-5.112-0.1-10.227,0.006-15.337c0.041-1.973-0.656-2.611-2.596-2.557 c-3.931,0.105-7.867-0.039-11.8,0.023c-1.705,0.029-2.414-0.564-2.367-2.326c0.088-3.301,0.072-6.609,0.002-9.912 c-0.037-1.667,0.5-2.412,2.295-2.4c8.966,0.057,17.936,0.045,26.902-0.004c1.66-0.008,2.184,0.686,2.18,2.267 c-0.039,13.059-0.004,26.118-0.092,39.172c-0.004,0.838-0.605,2.047-1.301,2.449c-18.267,10.613-55.345,31.807-55.88,31.945 C124.993,177.88,124.993,86.311,124.993,86.311z"/>
    <path fill-rule="evenodd" clip-rule="evenodd" fill="#011B72" d="M115.518,86.157c0,0,0.176,25.077,0.25,36.403 c0.011,1.784-0.565,2.348-2.293,2.296c-3.301-0.098-6.609-0.105-9.91,0.004c-1.814,0.059-2.549-0.477-2.449-2.404 c0.148-2.825,0.039-5.663,0.015-8.495c-0.004-0.596-0.104-1.192-0.195-2.166c-0.873,0.37-1.508,0.567-2.07,0.891 c-8.033,4.61-16.047,9.255-24.096,13.841c-1.365,0.778-2.031,1.664-1.992,3.346c0.122,4.953,0.139,9.914,0,14.865 c-0.064,2.244,0.639,3.002,2.93,2.984c12.191-0.092,24.385-0.045,36.576-0.039c3.44,0.002,3.434,0.014,3.426,3.367 c-0.008,2.91-0.089,5.826,0.025,8.731c0.08,1.988-0.73,2.559-2.639,2.546c-12.349-0.062-24.701-0.032-37.051-0.03 c-3.221,0.002-3.23,0.008-3.234,3.295c-0.003,10.227,0.004,32.213,0.004,33.602c-1.967-1.127-3.48-1.994-4.996-2.861 c-2.523-1.443-5.004-2.969-7.584-4.301c-1.521-0.789-2.072-1.786-2.068-3.525c0.059-22.42,0.062-44.839-0.018-67.257 c-0.006-1.755,0.775-2.513,2.072-3.26C74.933,109.538,115.518,86.157,115.518,86.157z"/>
  </g>
</svg>